<?xml version="1.0" encoding="UTF-8" standalone="no"?>
<svg width="1111px" height="249px" viewBox="0 0 1111 249" version="1.1" xmlns="http://www.w3.org/2000/svg" xmlns:xlink="http://www.w3.org/1999/xlink" xmlns:sketch="http://www.bohemiancoding.com/sketch/ns">
    <!-- Generator: Sketch 3.2.2 (9983) - http://www.bohemiancoding.com/sketch -->
    <title>Startuply</title>
    <desc>Created with Sketch.</desc>
    <defs></defs>
    <g id="Page-1" stroke="none" stroke-width="1" fill="none" fill-rule="evenodd" sketch:type="MSPage">
        <path d="M156.616,33.872 C145.384,24.368 130.984,16.304 113.416,9.68 C96.136,3.92 81.448,0.752 68.776,0.752 C25.576,1.328 2.824,17.456 0.52,49.712 C0.52,66.128 9.736,79.664 28.168,90.32 C36.808,96.08 53.8,103.568 78.568,112.784 C99.88,121.136 110.536,132.368 110.536,146.48 C109.384,165.488 95.848,174.992 69.352,174.992 C48.616,174.992 30.184,165.776 14.056,147.632 C10.312,149.648 7.72,151.376 6.568,152.528 C3.976,154.832 2.536,157.424 1.96,160.016 C20.392,183.344 42.856,194.864 69.352,195.152 C109.96,194 130.984,178.16 132.424,147.056 C132.136,126.32 119.464,110.48 94.408,99.248 C65.896,87.728 48.616,80.24 42.568,76.496 C29.032,69.008 22.12,60.368 21.832,50.576 C22.984,31.568 38.536,21.488 68.488,20.624 C90.952,20.624 117.16,29.84 146.824,47.984 C149.704,47.12 151.72,45.104 153.448,41.936 C155.464,39.056 156.616,36.176 156.616,33.872 L156.616,33.872 Z M225.448,9.392 C217.096,8.816 210.76,8.24 206.728,8.24 C204.712,28.976 202.984,50.864 201.256,74.192 C192.04,74.192 182.248,74.768 171.88,75.632 C171.304,77.936 171.016,80.528 171.016,83.696 C171.016,87.728 171.304,90.32 171.88,91.76 C180.52,93.2 189.736,94.064 199.816,94.064 C197.512,130.064 196.648,156.56 196.648,173.264 C196.648,179.888 197.8,184.784 200.104,187.952 C202.984,192.272 208.456,194.288 215.944,194.288 C229.192,194.288 241.288,191.696 251.944,185.936 C251.944,183.056 252.232,181.04 252.232,179.888 C251.944,176.144 251.368,173.264 250.216,171.248 C245.32,171.824 239.272,172.976 232.36,174.416 C227.176,174.992 224.008,175.28 223.144,175.28 C219.688,175.28 218.248,173.84 218.248,170.96 C218.248,160.016 219.4,134.672 221.128,94.64 C230.92,94.64 239.848,94.64 248.488,94.064 C256.84,93.488 262.024,92.912 263.752,92.336 C264.04,90.608 264.328,88.016 264.328,84.56 C264.04,81.968 263.752,79.376 263.752,76.784 C255.688,75.344 241.864,74.48 222.856,74.48 C223.72,53.168 224.584,31.568 225.448,9.392 L225.448,9.392 Z M403.432,183.92 C403.432,171.248 402.856,151.664 401.704,125.168 C400.552,98.096 398.824,81.968 396.808,76.784 C396.52,76.208 393.64,75.632 388.168,75.632 C384.136,76.208 380.968,76.784 378.952,77.648 C378.952,92.912 379.816,117.104 382.12,150.224 C367.144,166.928 352.168,175.28 337.48,175.28 C326.536,175.28 317.608,171.824 310.408,164.336 C302.92,156.272 299.464,146.48 299.464,134.96 C299.464,122 303.496,111.344 311.848,103.28 C319.912,96.08 328.264,92.336 337.192,92.048 C346.984,92.048 356.488,96.08 365.416,103.856 C369.448,100.976 372.328,96.944 374.056,91.184 C364.84,79.088 352.456,73.04 337.192,73.04 C321.928,73.328 308.68,78.224 297.736,88.016 C285.064,100.112 278.728,115.952 278.728,134.96 C278.728,153.392 284.776,168.656 297.448,180.464 C308.392,189.68 321.64,194 337.192,194 C353.32,194 368.872,186.512 383.848,170.96 C383.848,174.704 384.424,181.904 386.152,192.848 C390.184,192.848 395.944,192.848 403.144,192.56 C403.144,189.392 403.432,186.512 403.432,183.92 L403.432,183.92 Z M525.544,76.784 C516.904,74.48 508.552,73.04 500.2,73.04 C481.192,73.04 463.624,79.376 447.208,92.048 L444.904,73.616 C441.16,73.328 438.568,73.04 436.84,73.04 C434.536,73.04 431.08,73.616 426.472,74.192 C426.472,90.32 427.336,110.768 429.064,135.248 C431.368,164.048 433.672,183.632 436.264,194.576 C445.768,194.576 451.528,194 453.544,192.848 C453.544,191.696 453.832,189.104 453.832,185.072 C453.832,178.16 452.104,153.68 448.648,111.056 C466.504,98.384 485.512,91.76 505.672,91.76 C509.704,91.76 515.752,92.336 523.816,93.2 C524.968,90.032 525.544,84.56 525.544,76.784 L525.544,76.784 Z M591.496,9.392 C583.144,8.816 576.808,8.24 572.776,8.24 C570.76,28.976 569.032,50.864 567.304,74.192 C558.088,74.192 548.296,74.768 537.928,75.632 C537.352,77.936 537.064,80.528 537.064,83.696 C537.064,87.728 537.352,90.32 537.928,91.76 C546.568,93.2 555.784,94.064 565.864,94.064 C563.56,130.064 562.696,156.56 562.696,173.264 C562.696,179.888 563.848,184.784 566.152,187.952 C569.032,192.272 574.504,194.288 581.992,194.288 C595.24,194.288 607.336,191.696 617.992,185.936 C617.992,183.056 618.28,181.04 618.28,179.888 C617.992,176.144 617.416,173.264 616.264,171.248 C611.368,171.824 605.32,172.976 598.408,174.416 C593.224,174.992 590.056,175.28 589.192,175.28 C585.736,175.28 584.296,173.84 584.296,170.96 C584.296,160.016 585.448,134.672 587.176,94.64 C596.968,94.64 605.896,94.64 614.536,94.064 C622.888,93.488 628.072,92.912 629.8,92.336 C630.088,90.608 630.376,88.016 630.376,84.56 C630.088,81.968 629.8,79.376 629.8,76.784 C621.736,75.344 607.912,74.48 588.904,74.48 C589.768,53.168 590.632,31.568 591.496,9.392 L591.496,9.392 Z M770.632,188.816 C770.056,183.92 768.328,166.352 764.872,136.4 C760.552,102.128 757.096,81.104 754.216,73.04 C746.728,73.328 740.968,74.48 737.512,76.784 C738.376,88.592 741.256,114.224 746.152,153.392 C732.904,168.08 718.504,175.28 702.376,175.28 C689.128,175.28 679.336,171.536 673.576,163.472 C668.68,157.712 666.376,148.208 666.376,135.536 C666.376,122.864 669.256,103.568 675.304,78.224 C670.984,75.344 665.512,73.616 658.888,73.04 C650.248,99.824 646.216,121.136 646.216,136.976 C646.216,154.544 650.248,167.792 657.736,177.008 C666.376,188.816 681.352,194.576 702.088,194.576 C720.52,194.288 736.36,186.8 749.896,171.824 C751.048,179.888 752.488,186.512 753.64,191.984 C758.248,191.984 764.008,191.12 770.632,188.816 L770.632,188.816 Z M908.296,138.128 C908.296,114.8 897.64,96.944 876.328,84.848 C860.776,77.072 842.92,73.04 822.76,73.04 C822.184,77.072 821.896,80.24 821.896,81.968 C821.896,83.696 821.896,86.576 822.184,90.608 C837.16,91.76 850.12,94.64 861.352,99.248 C879.208,108.464 888.136,121.136 888.136,137.84 C888.136,162.032 875.176,174.704 849.256,175.568 C840.616,175.568 832.264,174.416 823.624,171.824 C822.472,176.432 821.896,179.312 821.896,180.464 C821.32,184.496 821.32,187.088 821.32,188.528 C829.96,192.56 839.464,194.288 849.832,194.288 C888.712,194.288 908.296,175.568 908.296,138.128 L908.296,138.128 Z M810.664,161.168 C810.664,130.64 810.376,101.552 810.088,74.192 C805.768,73.328 802.888,72.752 801.16,72.752 L792.52,73.04 C790.216,93.2 789.352,119.984 789.352,153.392 C789.352,186.8 789.64,217.904 790.792,247.568 C794.248,248.144 797.416,248.72 800.008,248.72 C801.448,248.72 804.328,248.432 808.648,248.144 C809.8,219.92 810.664,191.12 810.664,161.168 L810.664,161.168 Z M956.392,118.832 C956.392,51.728 955.528,13.136 954.088,2.768 C951.208,1.616 948.328,1.04 945.16,1.04 C940.552,1.04 937.384,1.616 935.656,2.48 C934.504,44.816 934.216,77.936 934.216,102.128 C934.216,156.848 935.368,187.376 937.96,193.136 C940.552,194 943.432,194.576 946.6,194.576 C949.48,194.576 952.072,194 954.952,192.56 C955.816,189.68 956.392,164.912 956.392,118.832 L956.392,118.832 Z M1110.472,79.952 C1107.016,76.496 1102.408,73.904 1096.072,72.752 C1083.4,95.792 1066.696,124.88 1045.96,160.016 C1036.168,147.056 1018.888,118.256 994.12,73.616 C990.088,75.344 985.192,78.224 979.432,82.256 C998.44,122.864 1016.584,155.12 1034.44,178.736 C1017.736,206.96 1005.928,227.12 999.016,238.64 C1001.32,243.536 1006.216,246.704 1013.128,248.432 C1022.632,236.912 1039.624,210.704 1064.392,169.52 C1093.768,118.256 1109.032,88.304 1110.472,79.952 L1110.472,79.952 Z" id="Startuply" fill="#FFFFFF" sketch:type="MSShapeGroup"></path>
    </g>
</svg>