<?xml version="1.0" encoding="UTF-8" standalone="no"?>
<svg width="648px" height="613px" viewBox="0 0 648 613" version="1.1" xmlns="http://www.w3.org/2000/svg" xmlns:xlink="http://www.w3.org/1999/xlink" xmlns:sketch="http://www.bohemiancoding.com/sketch/ns">
    <!-- Generator: Sketch 3.0.3 (7892) - http://www.bohemiancoding.com/sketch -->
    <title>Shape</title>
    <desc>Created with Sketch.</desc>
    <defs></defs>
    <g id="Page-1" stroke="none" stroke-width="1" fill="none" fill-rule="evenodd" sketch:type="MSPage">
        <g id="Artboard-1" sketch:type="MSArtboardGroup" transform="translate(-236.000000, -717.666667)" fill="#FFFFFF">
            <path d="M496,1123.723 L496,1066.61 C496,1059.046 499.348,1051.892 505.427,1046.467 C511.507,1041.043 519.523,1038.054 528,1038.054 L528,1009.499 C492.8,1009.499 464,1035.199 464,1066.61 L464,1109.443 C464,1117.329 456.836,1123.722 448,1123.722 L432,1123.722 L432,1152.277 L448,1152.277 C456.837,1152.277 464,1158.672 464,1166.556 L464,1209.394 C464,1240.801 492.8,1266.501 528,1266.501 L528,1237.945 C519.523,1237.945 511.506,1234.957 505.427,1229.532 C499.348,1224.106 496,1216.955 496,1209.393 L496,1152.276 C496,1144.391 488.836,1137.999 480,1137.999 C488.837,1138 496,1131.605 496,1123.723 L496,1123.723 Z M624,1152.277 L624,1209.394 C624,1216.956 620.652,1224.107 614.573,1229.533 C608.494,1234.958 600.478,1237.946 592,1237.946 L592,1266.502 C627.201,1266.502 656,1240.802 656,1209.395 L656,1166.557 C656,1158.671 663.164,1152.278 672,1152.278 L688,1152.278 L688,1123.723 L672,1123.723 C663.164,1123.723 656,1117.328 656,1109.444 L656,1066.61 C656,1035.198 627.201,1009.499 592,1009.499 L592,1038.054 C600.479,1038.054 608.494,1041.043 614.573,1046.469 C620.653,1051.893 624,1059.047 624,1066.611 L624,1123.725 C624,1131.608 631.164,1138.001 640,1138.001 C631.164,1138 624,1144.395 624,1152.277 L624,1152.277 Z M755.716,917.715 L684.284,846.284 C668.728,830.728 638,818 616,818 L376,818 C354,818 336,836 336,858 L336,1290 C336,1312 354,1330 376,1330 L744,1330 C766,1330 784,1312 784,1290 L784,986 C784,964 771.272,933.271 755.716,917.715 L755.716,917.715 Z M733.089,940.343 C734.654,941.908 736.214,943.83 737.729,946 L656,946 L656,864.272 C658.17,865.787 660.092,867.347 661.657,868.912 L733.089,940.343 L733.089,940.343 Z M752,1290 C752,1294.336 748.336,1298 744,1298 L376,1298 C371.664,1298 368,1294.336 368,1290 L368,858 C368,853.664 371.664,850 376,850 L616,850 C618.416,850 621.127,850.305 624,850.852 L624,978 L751.148,978 C751.695,980.873 752,983.583 752,986 L752,1290 L752,1290 Z" id="Shape" sketch:type="MSShapeGroup"></path>
        </g>
    </g>
</svg>